<svg xmlns="http://www.w3.org/2000/svg" xmlns:xlink="http://www.w3.org/1999/xlink" viewBox="0,0,256,256" width="100px" height="100px" fill-rule="nonzero"><g fill="#ffffff" fill-rule="nonzero" stroke="none" stroke-width="1" stroke-linecap="butt" stroke-linejoin="miter" stroke-miterlimit="10" stroke-dasharray="" stroke-dashoffset="0" font-family="none" font-weight="none" font-size="none" text-anchor="none" style="mix-blend-mode: normal"><g transform="scale(5.12,5.12)"><path d="M25,0c-11.57038,0 -21,9.42962 -21,21c0,11.57038 9.42962,21 21,21v7c0.00032,0.34449 0.17792,0.66456 0.47005,0.84714c0.29213,0.18258 0.65766,0.20196 0.96745,0.0513c2.40353,-1.17183 7.20194,-4.24775 11.49805,-9.11523c4.29611,-4.86749 8.06445,-11.55414 8.06445,-19.7832c0,-11.57038 -9.42962,-21 -21,-21zM25,2c10.48562,0 19,8.51438 19,19c0,7.61894 -3.48456,13.83647 -7.56445,18.45898c-3.45485,3.91434 -7.05078,6.36214 -9.43555,7.73242v-6.19141c-0.00006,-0.55226 -0.44774,-0.99994 -1,-1h-1c-10.48562,0 -19,-8.51438 -19,-19c0,-10.48562 8.51438,-19 19,-19zM25,9c-6.55556,0 -12,5.44444 -12,12c0,6.55556 5.44444,12 12,12c3.22222,0 5.44727,-1.10547 5.44727,-1.10547l-0.89453,-1.78906c0,0 -1.77496,0.89453 -4.55273,0.89453c-5.44444,0 -10,-4.55556 -10,-10c0,-5.44444 4.55556,-10 10,-10c5.44444,0 10,4.55556 10,10c0,1.33333 -0.34131,2.38057 -0.81445,3.04297c-0.47315,0.6624 -1.01888,0.95703 -1.68555,0.95703c-0.52778,0 -0.67184,-0.02841 -0.94922,-0.50391c-0.27737,-0.4755 -0.55078,-1.57943 -0.55078,-3.49609v-6h-2v1.54492c-1.06376,-0.9565 -2.46438,-1.54492 -4,-1.54492c-1.91667,0 -3.48144,0.75476 -4.49805,1.89844c-1.01661,1.14368 -1.50195,2.62934 -1.50195,4.10156c0,1.47222 0.48535,2.95788 1.50195,4.10156c1.01661,1.14368 2.58138,1.89844 4.49805,1.89844c1.81671,0 3.44845,-0.81876 4.55078,-2.10352c0.08434,0.21019 0.16593,0.42312 0.27344,0.60742c0.59763,1.0245 1.70356,1.49609 2.67578,1.49609c1.33333,0 2.5376,-0.70537 3.31445,-1.79297c0.77685,-1.0876 1.18555,-2.54036 1.18555,-4.20703c0,-6.55556 -5.44444,-12 -12,-12zM25,17c2.22099,0 4,1.77902 4,4c0,2.22098 -1.77901,4 -4,4c-1.41667,0 -2.35189,-0.49524 -3.00195,-1.22656c-0.65006,-0.73132 -0.99805,-1.74566 -0.99805,-2.77344c0,-1.02778 0.34799,-2.04212 0.99805,-2.77344c0.65006,-0.73132 1.58529,-1.22656 3.00195,-1.22656z"></path></g></g></svg>